<?xml version="1.0" encoding="UTF-8" standalone="no"?>
<svg
   xmlns:dc="http://purl.org/dc/elements/1.1/"
   xmlns:cc="http://creativecommons.org/ns#"
   xmlns:rdf="http://www.w3.org/1999/02/22-rdf-syntax-ns#"
   xmlns:svg="http://www.w3.org/2000/svg"
   xmlns="http://www.w3.org/2000/svg"
   xmlns:sodipodi="http://sodipodi.sourceforge.net/DTD/sodipodi-0.dtd"
   xmlns:inkscape="http://www.inkscape.org/namespaces/inkscape"
   width="52.722"
   height="59.001328"
   viewBox="0 0 52.722 59.001328"
   version="1.1"
   id="svg28"
   sodipodi:docname="dataverse-icon-rds.svg"
   style="fill:none"
   inkscape:version="0.92.3 (2405546, 2018-03-11)">
  <metadata
     id="metadata34">
    <rdf:RDF>
      <cc:Work
         rdf:about="">
        <dc:format>image/svg+xml</dc:format>
        <dc:type
           rdf:resource="http://purl.org/dc/dcmitype/StillImage" />
        <dc:title></dc:title>
      </cc:Work>
    </rdf:RDF>
  </metadata>
  <defs
     id="defs32" />
  <sodipodi:namedview
     pagecolor="#ffffff"
     bordercolor="#666666"
     borderopacity="1"
     objecttolerance="10"
     gridtolerance="10"
     guidetolerance="10"
     inkscape:pageopacity="0"
     inkscape:pageshadow="2"
     inkscape:window-width="1680"
     inkscape:window-height="991"
     id="namedview30"
     showgrid="false"
     fit-margin-top="0"
     fit-margin-left="0"
     fit-margin-right="0"
     fit-margin-bottom="0"
     inkscape:zoom="3.9333333"
     inkscape:cx="26.5"
     inkscape:cy="29.001326"
     inkscape:window-x="0"
     inkscape:window-y="30"
     inkscape:window-maximized="1"
     inkscape:current-layer="svg28" />
  <path
     d="m 26.4344,26.7823 c -0.3482,0 -0.6821,-0.1383 -0.9283,-0.3845 -0.2462,-0.2462 -0.3845,-0.5801 -0.3845,-0.9283 V 9.7152 c 0,-0.34819 0.1383,-0.68212 0.3845,-0.92833 0.2462,-0.24621 0.5801,-0.38453 0.9283,-0.38453 0.3482,0 0.6822,0.13832 0.9284,0.38453 0.2462,0.24621 0.3845,0.58014 0.3845,0.92833 v 15.7543 c 0,0.3482 -0.1383,0.6821 -0.3845,0.9283 -0.2462,0.2462 -0.5802,0.3845 -0.9284,0.3845 z"
     id="path2"
     inkscape:connector-curvature="0"
     style="fill:#a4a5a8" />
  <path
     d="m 29.8895,28.7776 c -0.2893,4e-4 -0.5705,-0.0949 -0.8001,-0.2708 -0.2296,-0.176 -0.3947,-0.4229 -0.4695,-0.7023 -0.0748,-0.2795 -0.0553,-0.5758 0.0556,-0.843 0.1109,-0.2671 0.3069,-0.4902 0.5576,-0.6345 l 13.6428,-7.8772 c 0.1494,-0.0899 0.3152,-0.1492 0.4878,-0.1744 0.1726,-0.0251 0.3485,-0.0156 0.5174,0.028 0.1689,0.0436 0.3274,0.1204 0.4663,0.2259 0.1388,0.1055 0.2553,0.2377 0.3425,0.3887 0.0872,0.1511 0.1435,0.318 0.1655,0.491 0.022,0.1731 0.0093,0.3487 -0.0374,0.5168 -0.0466,0.1681 -0.1263,0.3251 -0.2344,0.4621 -0.108,0.1369 -0.2423,0.2509 -0.3949,0.3354 l -13.6428,7.8771 c -0.1994,0.1157 -0.4258,0.1768 -0.6564,0.1772 z"
     id="path4"
     inkscape:connector-curvature="0"
     style="fill:#a4a5a8" />
  <path
     d="m 43.532,40.6442 c -0.2303,-2e-4 -0.4565,-0.0606 -0.6564,-0.175 L 29.2328,32.592 c -0.1494,-0.0862 -0.2804,-0.201 -0.3854,-0.3378 -0.1051,-0.1368 -0.1822,-0.293 -0.2269,-0.4596 -0.0447,-0.1666 -0.0561,-0.3404 -0.0336,-0.5114 0.0224,-0.1711 0.0784,-0.336 0.1646,-0.4854 0.0862,-0.1494 0.201,-0.2804 0.3378,-0.3855 0.1368,-0.105 0.293,-0.1821 0.4596,-0.2268 0.1666,-0.0447 0.3404,-0.0562 0.5114,-0.0337 0.171,0.0225 0.336,0.0784 0.4854,0.1646 l 13.6428,7.8771 c 0.2507,0.1444 0.4467,0.3674 0.5576,0.6346 0.1109,0.2672 0.1304,0.5635 0.0555,0.8429 -0.0748,0.2795 -0.2398,0.5263 -0.4694,0.7023 -0.2296,0.176 -0.5109,0.2712 -0.8002,0.2709 z"
     id="path6"
     inkscape:connector-curvature="0"
     style="fill:#a4a5a8" />
  <path
     d="m 26.4344,50.5167 c -0.3482,0 -0.6821,-0.1383 -0.9283,-0.3845 C 25.2599,49.886 25.1216,49.552 25.1216,49.2039 V 33.4496 c 0,-0.3482 0.1383,-0.6821 0.3845,-0.9284 0.2462,-0.2462 0.5801,-0.3845 0.9283,-0.3845 0.3482,0 0.6822,0.1383 0.9284,0.3845 0.2462,0.2463 0.3845,0.5802 0.3845,0.9284 v 15.7543 c 0,0.3481 -0.1383,0.6821 -0.3845,0.9283 -0.2462,0.2462 -0.5802,0.3845 -0.9284,0.3845 z"
     id="path8"
     inkscape:connector-curvature="0"
     style="fill:#a4a5a8" />
  <path
     d="M 9.33678,40.6442 C 9.04751,40.6445 8.76622,40.5493 8.53664,40.3733 8.30705,40.1973 8.14201,39.9505 8.06717,39.671 7.99232,39.3916 8.01186,39.0953 8.12274,38.8281 8.23362,38.5609 8.42965,38.3379 8.68035,38.1935 L 22.3253,30.3164 c 0.1494,-0.0862 0.3144,-0.1421 0.4854,-0.1646 0.171,-0.0225 0.3448,-0.011 0.5114,0.0337 0.1666,0.0447 0.3228,0.1218 0.4596,0.2268 0.1368,0.1051 0.2516,0.2361 0.3378,0.3855 0.0862,0.1494 0.1422,0.3143 0.1646,0.4854 0.0225,0.171 0.011,0.3448 -0.0337,0.5114 -0.0447,0.1666 -0.1217,0.3228 -0.2268,0.4596 -0.105,0.1368 -0.236,0.2516 -0.3854,0.3378 L 9.99321,40.4692 c -0.19966,0.1149 -0.42605,0.1753 -0.65643,0.175 z"
     id="path10"
     inkscape:connector-curvature="0"
     style="fill:#a4a5a8" />
  <path
     d="m 22.9771,28.7771 c -0.2307,7e-4 -0.4574,-0.0605 -0.6564,-0.1772 L 8.67574,20.7228 C 8.38099,20.5453 8.16768,20.2592 8.0817,19.9261 7.99572,19.593 8.04395,19.2394 8.216,18.9415 c 0.17205,-0.298 0.45417,-0.5164 0.78568,-0.6085 0.3315,-0.092 0.68589,-0.0503 0.98691,0.1163 l 13.64491,7.8772 c 0.2507,0.1443 0.4468,0.3674 0.5576,0.6345 0.1109,0.2672 0.1305,0.5635 0.0556,0.843 -0.0748,0.2794 -0.2399,0.5263 -0.4694,0.7022 -0.2296,0.176 -0.5109,0.2712 -0.8002,0.2709 z"
     id="path12"
     inkscape:connector-curvature="0"
     style="fill:#a4a5a8" />
  <path
     d="m 26.4345,26.9168 c 0.5034,0 0.9955,0.1494 1.414,0.4291 0.4185,0.2797 0.7447,0.6773 0.9373,1.1424 0.1925,0.4651 0.2428,0.9769 0.1444,1.4706 -0.0984,0.4937 -0.341,0.9471 -0.6971,1.3029 -0.3561,0.3558 -0.8097,0.598 -1.3035,0.6959 -0.4938,0.098 -1.0055,0.0473 -1.4705,-0.1457 -0.4649,-0.1929 -0.8622,-0.5194 -1.1416,-0.9382 -0.2793,-0.4188 -0.4282,-0.911 -0.4278,-1.4144 6e-4,-0.6745 0.269,-1.3212 0.7462,-1.798 0.4771,-0.4767 1.1241,-0.7446 1.7986,-0.7446 z m 0,-3.0633 c -1.1094,-4e-4 -2.1939,0.3282 -3.1165,0.9442 -0.9226,0.6161 -1.6417,1.4919 -2.0665,2.5168 -0.4247,1.0248 -0.5359,2.1526 -0.3196,3.2406 0.2163,1.0881 0.7505,2.0876 1.5349,2.872 0.7844,0.7845 1.7839,1.3186 2.872,1.5349 1.088,0.2164 2.2158,0.1051 3.2406,-0.3196 1.0249,-0.4248 1.9007,-1.1439 2.5168,-2.0665 0.616,-0.9226 0.9446,-2.0071 0.9442,-3.1165 0,-1.4868 -0.5906,-2.9126 -1.6419,-3.964 -1.0513,-1.0513 -2.4772,-1.6419 -3.964,-1.6419 z"
     id="path14"
     inkscape:connector-curvature="0"
     style="fill:#f29123" />
  <path
     d="m 47.1249,15.0087 c 0.5034,-5e-4 0.9956,0.1484 1.4144,0.4278 0.4187,0.2793 0.7453,0.6766 0.9382,1.1416 0.1929,0.4649 0.2436,0.9766 0.1457,1.4704 -0.0979,0.4938 -0.3401,0.9474 -0.6959,1.3035 -0.3558,0.3562 -0.8093,0.5987 -1.303,0.6971 -0.4937,0.0984 -1.0054,0.0481 -1.4706,-0.1444 -0.4651,-0.1926 -0.8626,-0.5187 -1.1424,-0.9373 -0.2797,-0.4185 -0.429,-0.9106 -0.429,-1.414 6e-4,-0.6743 0.2686,-1.321 0.7452,-1.798 0.4767,-0.477 1.123,-0.7456 1.7974,-0.7467 z m 0,-3.0634 c -1.1096,-0.0021 -2.195,0.3249 -3.1187,0.9398 -0.9237,0.6149 -1.6442,1.49 -2.0703,2.5146 -0.4261,1.0245 -0.5388,2.1525 -0.3236,3.2411 0.2151,1.0885 0.7484,2.0888 1.5323,2.8742 0.7838,0.7854 1.7831,1.3206 2.8712,1.5379 1.0882,0.2173 2.2164,0.1069 3.2417,-0.3173 1.0254,-0.4241 1.9019,-1.1429 2.5186,-2.0654 0.6167,-0.9225 0.9459,-2.0072 0.9459,-3.1168 0,-1.487 -0.5905,-2.9131 -1.6418,-3.9647 -1.0512,-1.0517 -2.4771,-1.6428 -3.9641,-1.6434 z"
     id="path16"
     inkscape:connector-curvature="0"
     style="fill:#f29123" />
  <path
     d="m 5.74139,15.0086 c 0.50339,-4e-4 0.99561,0.1485 1.41438,0.4278 0.41877,0.2794 0.74528,0.6767 0.93822,1.1416 0.19294,0.465 0.24365,0.9767 0.14571,1.4705 C 8.14176,18.5423 7.89957,18.9959 7.54376,19.352 7.18796,19.7081 6.73453,19.9507 6.24084,20.0491 5.74715,20.1475 5.23537,20.0972 4.77025,19.9047 4.30513,19.7121 3.90756,19.3859 3.62784,18.9674 3.34813,18.5489 3.19882,18.0568 3.19882,17.5534 3.19998,16.8792 3.46816,16.233 3.94467,15.756 4.42118,15.2791 5.06721,15.0104 5.74139,15.0086 Z m 0,-3.0633 c -1.10918,0 -2.19344,0.3289 -3.11569,0.9451 -0.92224,0.6163 -1.64104402,1.4921 -2.06550602,2.5169 -0.424463,1.0247 -0.5355222,2.1523 -0.319133,3.2402 0.216389,1.0878 0.750509,2.0871 1.53480902,2.8714 0.78431,0.7843 1.78358,1.3184 2.87144,1.5348 1.08786,0.2164 2.21546,0.1054 3.2402,-0.3191 1.02474,-0.4245 1.90061,-1.1433 2.51679,-2.0655 0.6163,-0.9223 0.9452,-2.0065 0.9452,-3.1157 0,-1.4874 -0.5909,-2.9138 -1.6426,-3.9655 C 8.65518,12.5362 7.22874,11.9453 5.74139,11.9453 Z"
     id="path18"
     inkscape:connector-curvature="0"
     style="fill:#f29123" />
  <path
     d="m 5.60808,39.0829 c 0.5034,-5e-4 0.99562,0.1484 1.41439,0.4278 0.41877,0.2793 0.74528,0.6766 0.93822,1.1416 0.19294,0.4649 0.24365,0.9767 0.14571,1.4704 -0.09795,0.4938 -0.34014,0.9474 -0.69594,1.3036 -0.3558,0.3561 -0.80923,0.5986 -1.30292,0.697 -0.4937,0.0984 -1.00548,0.0481 -1.4706,-0.1444 C 4.17182,43.7863 3.77426,43.4602 3.49454,43.0416 3.21482,42.6231 3.06552,42.131 3.06552,41.6276 3.06668,40.9534 3.33485,40.3072 3.81136,39.8303 4.28787,39.3533 4.93391,39.0846 5.60808,39.0829 Z m 0,-3.0634 c -1.10917,0 -2.19343,0.3289 -3.11568,0.9452 -0.92224,0.6162 -1.64104702,1.492 -2.06551002,2.5168 -0.4244623,1.0247 -0.535518,2.1523 -0.319129,3.2402 0.216389,1.0879 0.750506,2.0871 1.53480902,2.8714 0.78431,0.7843 1.78357,1.3185 2.87143,1.5348 1.08787,0.2164 2.21546,0.1054 3.24021,-0.3191 1.02474,-0.4245 1.9006,-1.1433 2.51679,-2.0655 0.6163,-0.9222 0.9452,-2.0065 0.9452,-3.1157 3e-4,-0.7365 -0.1446,-1.4659 -0.4263,-2.1464 C 10.5081,38.8006 10.0951,38.1823 9.57424,37.6615 9.05343,37.1406 8.43508,36.7276 7.75455,36.4458 7.07401,36.1641 6.34463,36.0192 5.60808,36.0195 Z"
     id="path20"
     inkscape:connector-curvature="0"
     style="fill:#f29123" />
  <path
     d="m 26.4345,50.8485 c 0.5033,0 0.9953,0.1492 1.4138,0.4289 0.4185,0.2796 0.7446,0.677 0.9372,1.142 0.1926,0.465 0.243,0.9767 0.1449,1.4703 -0.0982,0.4936 -0.3406,0.9471 -0.6965,1.303 -0.3559,0.3558 -0.8093,0.5982 -1.3029,0.6964 -0.4937,0.0982 -1.0053,0.0478 -1.4703,-0.1448 -0.465,-0.1926 -0.8625,-0.5188 -1.1421,-0.9373 -0.2796,-0.4185 -0.4289,-0.9105 -0.4289,-1.4138 6e-4,-0.6747 0.2689,-1.3216 0.746,-1.7987 0.4771,-0.4771 1.1241,-0.7454 1.7988,-0.746 z m 0,-3.0633 c -1.1093,-5e-4 -2.1938,0.3281 -3.1163,0.944 -0.9225,0.616 -1.6417,1.4917 -2.0665,2.5164 -0.4248,1.0247 -0.5361,2.1524 -0.32,3.2404 0.2162,1.088 0.7501,2.0875 1.5343,2.872 0.7842,0.7845 1.7835,1.3188 2.8714,1.5354 1.0879,0.2166 2.2156,0.1056 3.2405,-0.3188 1.0249,-0.4244 1.9009,-1.1432 2.5172,-2.0655 0.6163,-0.9222 0.9453,-2.0066 0.9453,-3.1159 3e-4,-0.7363 -0.1445,-1.4655 -0.4261,-2.1459 -0.2816,-0.6804 -0.6945,-1.2987 -1.2151,-1.8194 -0.5205,-0.5208 -1.1386,-0.934 -1.8189,-1.2158 C 27.9,47.9302 27.1709,47.7852 26.4345,47.7852 Z"
     id="path22"
     inkscape:connector-curvature="0"
     style="fill:#f29123" />
  <path
     d="m 47.1249,38.902 c 0.5024,0 0.9936,0.1489 1.4114,0.4278 0.4179,0.2789 0.7438,0.6753 0.9366,1.1393 0.1927,0.4639 0.2437,0.9746 0.1465,1.4675 -0.0972,0.4929 -0.3383,0.946 -0.6928,1.302 -0.3545,0.356 -0.8065,0.599 -1.299,0.6983 -0.4925,0.0994 -1.0034,0.0506 -1.4681,-0.1402 -0.4648,-0.1907 -0.8627,-0.5149 -1.1433,-0.9316 -0.2807,-0.4167 -0.4317,-0.9072 -0.4339,-1.4096 6e-4,-0.6741 0.2687,-1.3205 0.7454,-1.7972 0.4767,-0.4767 1.1231,-0.7448 1.7972,-0.7454 z m 0,-3.0524 c -1.1091,-0.0017 -2.1938,0.3256 -3.1168,0.9405 -0.9231,0.615 -1.643,1.4899 -2.0686,2.5141 -0.4256,1.0241 -0.5379,2.1516 -0.3226,3.2396 0.2153,1.088 0.7485,2.0877 1.5322,2.8726 0.7836,0.7849 1.7825,1.3196 2.8702,1.5366 1.0877,0.2171 2.2153,0.1066 3.2401,-0.3175 1.0249,-0.424 1.9009,-1.1425 2.5173,-2.0646 0.6163,-0.9221 0.9453,-2.0063 0.9453,-3.1154 0,-1.4868 -0.5906,-2.9126 -1.6419,-3.964 -1.0513,-1.0513 -2.4772,-1.6419 -3.9639,-1.6419 z"
     id="path24"
     inkscape:connector-curvature="0"
     style="fill:#f29123" />
  <path
     d="m 26.4345,3.06333 c 0.5034,0 0.9955,0.1493 1.414,0.42902 0.4185,0.27972 0.7447,0.67728 0.9373,1.14241 0.1925,0.46512 0.2428,0.97689 0.1444,1.47058 -0.0984,0.49369 -0.341,0.94713 -0.6971,1.30293 C 27.877,7.76407 27.4234,8.00626 26.9296,8.10421 26.4358,8.20215 25.9241,8.15144 25.4591,7.9585 24.9942,7.76556 24.5969,7.43905 24.3175,7.02028 24.0382,6.60151 23.8893,6.10929 23.8897,5.6059 23.8903,4.93136 24.1587,4.28466 24.6359,3.8079 25.113,3.33114 25.76,3.06333 26.4345,3.06333 Z m 0,-3.06332957310254 C 25.3251,-4.32325e-4 24.2406,0.328159 23.318,0.944217 22.3954,1.56027 21.6763,2.43612 21.2515,3.46095 c -0.4247,1.02483 -0.5359,2.15262 -0.3196,3.24068 0.2163,1.08807 0.7505,2.08753 1.5349,2.87197 0.7844,0.7844 1.7839,1.3186 2.872,1.5349 1.088,0.2163 2.2158,0.1051 3.2406,-0.3196 1.0249,-0.4248 1.9007,-1.14392 2.5168,-2.0665 0.616,-0.92258 0.9446,-2.00714 0.9442,-3.1165 0,-0.73618 -0.145,-1.46515 -0.4267,-2.14529 C 31.3319,2.78047 30.919,2.16248 30.3985,1.64193 29.8779,1.12137 29.2599,0.708444 28.5798,0.426721 27.8996,0.144999 27.1707,4.2689746e-7 26.4345,4.2689746e-7 Z"
     id="path26"
     inkscape:connector-curvature="0"
     style="fill:#f29123" />
</svg>
