<?xml version="1.0" encoding="UTF-8" standalone="no"?>
<svg
   xmlns:dc="http://purl.org/dc/elements/1.1/"
   xmlns:cc="http://creativecommons.org/ns#"
   xmlns:rdf="http://www.w3.org/1999/02/22-rdf-syntax-ns#"
   xmlns:svg="http://www.w3.org/2000/svg"
   xmlns="http://www.w3.org/2000/svg"
   xmlns:sodipodi="http://sodipodi.sourceforge.net/DTD/sodipodi-0.dtd"
   xmlns:inkscape="http://www.inkscape.org/namespaces/inkscape"
   width="54.999901"
   height="61.538479"
   viewBox="0 0 54.999901 61.538479"
   version="1.1"
   id="svg34"
   sodipodi:docname="dataverse-icon-mxrdr.svg"
   style="fill:none"
   inkscape:version="0.92.3 (2405546, 2018-03-11)">
  <metadata
     id="metadata40">
    <rdf:RDF>
      <cc:Work
         rdf:about="">
        <dc:format>image/svg+xml</dc:format>
        <dc:type
           rdf:resource="http://purl.org/dc/dcmitype/StillImage" />
        <dc:title></dc:title>
      </cc:Work>
    </rdf:RDF>
  </metadata>
  <defs
     id="defs38" />
  <sodipodi:namedview
     pagecolor="#ffffff"
     bordercolor="#666666"
     borderopacity="1"
     objecttolerance="10"
     gridtolerance="10"
     guidetolerance="10"
     inkscape:pageopacity="0"
     inkscape:pageshadow="2"
     inkscape:window-width="1680"
     inkscape:window-height="991"
     id="namedview36"
     showgrid="false"
     fit-margin-top="0"
     fit-margin-left="0"
     fit-margin-right="0"
     fit-margin-bottom="0"
     inkscape:zoom="3.8064516"
     inkscape:cx="27.5"
     inkscape:cy="30.7084"
     inkscape:window-x="0"
     inkscape:window-y="30"
     inkscape:window-maximized="1"
     inkscape:current-layer="svg34" />
  <path
     d="m 27.5706,27.470178 c -0.7555,0 -1.3694,-0.6139 -1.3694,-1.3694 v -15.8212 c 0,-0.75547 0.6139,-1.36942 1.3694,-1.36942 0.7554,0 1.3694,0.61395 1.3694,1.36942 v 15.8212 c 0,0.7577 -0.614,1.3694 -1.3694,1.3694 z"
     id="path2"
     inkscape:connector-curvature="0"
     style="fill:#a4a5a8" />
  <path
     d="m 9.67011,42.467578 c -0.47244,0 -0.93119,-0.2442 -1.18682,-0.6824 -0.37887,-0.655 -0.1552,-1.4927 0.49755,-1.8715 l 13.89036,-8.0476 c 0.655,-0.3788 1.4927,-0.1552 1.8715,0.4976 0.3789,0.655 0.1552,1.4926 -0.4975,1.8715 l -13.8904,8.0476 c -0.2145,0.1255 -0.45189,0.1848 -0.68469,0.1848 z"
     id="path4"
     inkscape:connector-curvature="0"
     style="fill:#a4a5a8" />
  <path
     d="m 27.571,28.076178 c 1.463,0 2.6521,1.1891 2.6521,2.652 0,1.463 -1.1891,2.6521 -2.6521,2.6521 -1.463,0 -2.6521,-1.1891 -2.6521,-2.6521 0,-1.4629 1.1891,-2.652 2.6521,-2.652 z m 0,-3.1953 c -3.2295,0 -5.8474,2.6178 -5.8474,5.8473 0,3.2296 2.6179,5.8474 5.8474,5.8474 3.2295,0 5.8474,-2.6178 5.8474,-5.8474 0,-3.2295 -2.6179,-5.8473 -5.8474,-5.8473 z"
     id="path6"
     inkscape:connector-curvature="0"
     style="fill:#c73734" />
  <path
     d="m 5.98708,40.525178 c -0.75545,0 -1.3694,-0.6139 -1.3694,-1.3694 v -16.4329 c 0,-0.7554 0.61395,-1.3694 1.3694,-1.3694 0.75546,0 1.36941,0.614 1.36941,1.3694 v 16.4329 c 0,0.7578 -0.61167,1.3694 -1.36941,1.3694 z"
     id="path8"
     inkscape:connector-curvature="0"
     style="fill:#a4a5a8" />
  <path
     d="m 9.99221,17.369578 c -0.47245,0 -0.93349,-0.2465 -1.18683,-0.6847 -0.37887,-0.655 -0.15291,-1.4926 0.50212,-1.8715 l 13.9383,-8.04754 c 0.655,-0.37887 1.4926,-0.15292 1.8715,0.50211 0.3789,0.65503 0.1529,1.49266 -0.5021,1.87152 l -13.9383,8.04751 c -0.2168,0.1233 -0.4519,0.1826 -0.68469,0.1826 z"
     id="path10"
     inkscape:connector-curvature="0"
     style="fill:#a4a5a8" />
  <path
     d="m 49.1525,15.656178 c 1.463,0 2.6521,1.1891 2.6521,2.6521 0,1.463 -1.1891,2.6521 -2.6521,2.6521 -1.4629,0 -2.652,-1.1891 -2.652,-2.6521 0,-1.463 1.1891,-2.6521 2.652,-2.6521 z m 0,-3.1952 c -3.2295,0 -5.8473,2.6178 -5.8473,5.8473 0,3.2295 2.6178,5.8474 5.8473,5.8474 3.2296,0 5.8474,-2.6179 5.8474,-5.8474 0,-3.2295 -2.6178,-5.8473 -5.8474,-5.8473 z"
     id="path12"
     inkscape:connector-curvature="0"
     style="fill:#c73734" />
  <path
     d="m 5.98653,15.656178 c 1.46298,0 2.65208,1.1891 2.65208,2.6521 0,1.463 -1.1891,2.6521 -2.65208,2.6521 -1.46298,0 -2.65209,-1.1891 -2.65209,-2.6521 0,-1.463 1.19139,-2.6521 2.65209,-2.6521 z m 0,-3.1952 c -3.22952,0 -5.84737,2.6178 -5.84737,5.8473 0,3.2295 2.61785,5.8474 5.84737,5.8474 3.22952,0 5.84737,-2.6179 5.84737,-5.8474 0,-3.2295 -2.61557,-5.8473 -5.84737,-5.8473 z"
     id="path14"
     inkscape:connector-curvature="0"
     style="fill:#c73734" />
  <path
     d="m 5.84737,40.771478 c 1.46298,0 2.65208,1.1891 2.65208,2.6521 0,1.4629 -1.1891,2.652 -2.65208,2.652 -1.46298,0 -2.65209,-1.1891 -2.65209,-2.652 0,-1.463 1.18911,-2.6521 2.65209,-2.6521 z m 0,-3.1953 c -3.22952,0 -5.84737,2.6178 -5.84737,5.8474 0,3.2295 2.61785,5.8473 5.84737,5.8473 3.22952,0 5.84733,-2.6178 5.84733,-5.8473 0.0023,-3.2296 -2.61553,-5.8474 -5.84733,-5.8474 z"
     id="path16"
     inkscape:connector-curvature="0"
     style="fill:#c73734" />
  <path
     d="m 27.571,53.039078 c 1.463,0 2.6521,1.1891 2.6521,2.652 0,1.463 -1.1891,2.6521 -2.6521,2.6521 -1.463,0 -2.6521,-1.1891 -2.6521,-2.6521 0,-1.4629 1.1891,-2.652 2.6521,-2.652 z m 0,-3.1953 c -3.2295,0 -5.8474,2.6178 -5.8474,5.8473 0,3.2296 2.6179,5.8474 5.8474,5.8474 3.2295,0 5.8474,-2.6178 5.8474,-5.8474 0,-3.2295 -2.6179,-5.8473 -5.8474,-5.8473 z"
     id="path18"
     inkscape:connector-curvature="0"
     style="fill:#c73734" />
  <path
     d="m 49.1525,40.578078 c 1.463,0 2.6521,1.1891 2.6521,2.6521 0,1.463 -1.1891,2.6521 -2.6521,2.6521 -1.4629,0 -2.652,-1.1891 -2.652,-2.6521 0,-1.463 1.1891,-2.6521 2.652,-2.6521 z m 0,-3.1953 c -3.2295,0 -5.8473,2.6179 -5.8473,5.8474 0,3.2295 2.6178,5.8474 5.8473,5.8474 3.2296,0 5.8474,-2.6179 5.8474,-5.8474 0.0023,-3.2295 -2.6178,-5.8474 -5.8474,-5.8474 z"
     id="path20"
     inkscape:connector-curvature="0"
     style="fill:#c73734" />
  <path
     d="m 27.571,3.195288 c 1.463,0 2.6521,1.1891 2.6521,2.65208 0,1.46298 -1.1891,2.65209 -2.6521,2.65209 -1.463,0 -2.6521,-1.18911 -2.6521,-2.65209 -0.0023,-1.4607 1.1891,-2.65208 2.6521,-2.65208 z M 27.571,0 c -3.2295,0 -5.8474,2.617848 -5.8474,5.847368 0,3.22952 2.6179,5.84741 5.8474,5.84741 3.2295,0 5.8474,-2.61789 5.8474,-5.84741 C 33.4184,2.620128 30.8005,0 27.571,0 Z"
     id="path22"
     inkscape:connector-curvature="0"
     style="fill:#c73734" />
  <path
     d="m 49.1344,35.794578 c -0.7577,-0.0045 -1.3694,-0.6208 -1.3648,-1.3762 0.0022,-0.7555 0.6185,-1.3672 1.3739,-1.3649 0.7578,0.0046 1.3672,0.6185 1.3649,1.3763 -0.0023,0.7532 -0.6163,1.3648 -1.3694,1.3648 -0.0023,0 -0.0046,0 -0.0046,0 z m 0.0137,-3.6517 c -0.7577,-0.0046 -1.3671,-0.6208 -1.3648,-1.3763 0.0022,-0.7554 0.6185,-1.3671 1.3739,-1.3648 0.7578,0.0045 1.3694,0.6185 1.3649,1.3762 -0.0023,0.7555 -0.6163,1.3649 -1.3694,1.3649 -0.0023,0 -0.0023,0 -0.0046,0 z m 0.0137,-3.6518 c -0.7555,-0.0045 -1.3671,-0.6208 -1.3649,-1.3762 0.0046,-0.7555 0.6186,-1.3672 1.3763,-1.3649 0.7555,0.0046 1.3671,0.6185 1.3626,1.3763 -0.0023,0.7554 -0.614,1.3648 -1.3672,1.3648 -0.0022,0 -0.0045,0 -0.0068,0 z"
     id="path24"
     inkscape:connector-curvature="0"
     style="fill:#a4a5a8" />
  <path
     d="m 33.9681,51.938478 c -0.3743,-0.6596 -0.146,-1.4972 0.509,-1.8692 0.655,-0.3766 1.4927,-0.1484 1.8692,0.5066 0.3743,0.6596 0.1484,1.4927 -0.5089,1.8693 -0.6528,0.3743 -1.4904,0.1483 -1.867,-0.5044 -0.0023,-0.0023 -0.0023,-0.0023 -0.0023,-0.0023 z m 3.1679,-1.8145 c -0.3743,-0.6596 -0.146,-1.4949 0.509,-1.8692 0.655,-0.3766 1.4927,-0.1484 1.8692,0.5067 0.3743,0.6573 0.1484,1.4949 -0.5089,1.8692 -0.6551,0.3766 -1.4904,0.1484 -1.867,-0.5044 0,0 0,0 -0.0023,-0.0023 z m 3.1702,-1.8144 c -0.3743,-0.6573 -0.1461,-1.495 0.509,-1.8693 0.6573,-0.3743 1.4926,-0.1483 1.8692,0.509 0.3743,0.6573 0.1484,1.4926 -0.5112,1.867 -0.6551,0.3765 -1.4881,0.1506 -1.8647,-0.5022 0,0 -0.0023,-0.0022 -0.0023,-0.0045 z"
     id="path26"
     inkscape:connector-curvature="0"
     style="fill:#a4a5a8" />
  <path
     d="m 12.402,46.872578 c 0.3835,-0.6551 1.2234,-0.8764 1.8738,-0.493 0.6528,0.3789 0.8742,1.2188 0.4953,1.8715 -0.3834,0.655 -1.2188,0.8742 -1.8738,0.493 -0.6505,-0.3789 -0.8741,-1.2165 -0.4976,-1.8692 0.0023,0 0.0023,-0.0023 0.0023,-0.0023 z m 3.1565,1.8373 c 0.3834,-0.6551 1.2211,-0.8742 1.8738,-0.493 0.6528,0.3789 0.8742,1.2188 0.4953,1.8715 -0.3834,0.6528 -1.2211,0.8764 -1.8738,0.493 -0.6528,-0.3789 -0.8742,-1.2165 -0.4976,-1.8693 0,0 0,1e-4 0.0023,-0.0022 z m 3.1542,1.8373 c 0.3812,-0.6528 1.2211,-0.8742 1.8738,-0.493 0.6528,0.3811 0.8742,1.2187 0.493,1.8738 -0.3811,0.6527 -1.2188,0.8741 -1.8738,0.493 -0.6527,-0.3789 -0.8741,-1.2142 -0.4976,-1.867 0.0023,-0.0023 0.0046,-0.0046 0.0046,-0.0068 z"
     id="path28"
     inkscape:connector-curvature="0"
     style="fill:#a4a5a8" />
  <path
     d="m 42.7367,14.586878 c -0.3834,0.6551 -1.2234,0.8765 -1.8738,0.493 -0.6528,-0.3788 -0.8742,-1.2187 -0.4953,-1.8715 0.3834,-0.655 1.2188,-0.8741 1.8738,-0.493 0.6505,0.3789 0.8742,1.2165 0.4976,1.8693 z m -3.1542,-1.8395 c -0.3834,0.655 -1.2211,0.8741 -1.8738,0.493 -0.6528,-0.3789 -0.8742,-1.2188 -0.4953,-1.8716 0.3834,-0.6527 1.2211,-0.8764 1.8738,-0.493 0.6528,0.3789 0.8742,1.2165 0.4976,1.8693 -0.0023,0.0023 -0.0023,0.0023 -0.0023,0.0023 z m -3.1565,-1.8373 c -0.3811,0.6527 -1.2211,0.8741 -1.8738,0.493 -0.6528,-0.3812 -0.8741,-1.2188 -0.493,-1.87383 0.3812,-0.65275 1.2188,-0.87414 1.8738,-0.49299 0.6528,0.37887 0.8742,1.21422 0.4976,1.86692 -0.0023,0.0046 -0.0023,0.0046 -0.0046,0.0069 z"
     id="path30"
     inkscape:connector-curvature="0"
     style="fill:#a4a5a8" />
  <path
     d="m 42.6843,39.475278 c -0.3835,0.655 -1.2234,0.8764 -1.8738,0.493 -0.6528,-0.3789 -0.8742,-1.2188 -0.4953,-1.8715 0.3834,-0.6551 1.2188,-0.8742 1.8738,-0.493 0.6505,0.3788 0.8741,1.2165 0.4976,1.8692 -0.0023,0.0023 -0.0023,0.0023 -0.0023,0.0023 z m -3.1565,-1.8373 c -0.3834,0.655 -1.2211,0.8741 -1.8738,0.493 -0.6528,-0.3789 -0.8741,-1.2188 -0.4953,-1.8715 0.3835,-0.6528 1.2211,-0.8765 1.8738,-0.493 0.6528,0.3789 0.8742,1.2165 0.4976,1.8692 0,0 0,0 -0.0023,0.0023 z m -3.1565,-1.8373 c -0.3811,0.6528 -1.221,0.8742 -1.8738,0.493 -0.6527,-0.3811 -0.8741,-1.2188 -0.493,-1.8738 0.3812,-0.6528 1.2188,-0.8741 1.8738,-0.493 0.6528,0.3789 0.8742,1.2142 0.4976,1.867 -0.0023,0.0023 -0.0023,0.0045 -0.0046,0.0068 z"
     id="path32"
     inkscape:connector-curvature="0"
     style="fill:#a4a5a8" />
</svg>
