<?xml version="1.0" encoding="UTF-8" standalone="no"?>
<svg
   xmlns:dc="http://purl.org/dc/elements/1.1/"
   xmlns:cc="http://creativecommons.org/ns#"
   xmlns:rdf="http://www.w3.org/1999/02/22-rdf-syntax-ns#"
   xmlns:svg="http://www.w3.org/2000/svg"
   xmlns="http://www.w3.org/2000/svg"
   xmlns:sodipodi="http://sodipodi.sourceforge.net/DTD/sodipodi-0.dtd"
   xmlns:inkscape="http://www.inkscape.org/namespaces/inkscape"
   width="52.552261"
   height="58.794415"
   viewBox="0 0 52.552261 58.794415"
   version="1.1"
   id="svg26"
   sodipodi:docname="dataverse-icon-repod.svg"
   inkscape:export-filename="/home/msuda/Desktop/Vecler dla MS/repod/Serwis internetowy/Ikony/Ikony/dataverse.svg.png"
   inkscape:export-xdpi="96"
   inkscape:export-ydpi="96"
   style="fill:none"
   inkscape:version="0.92.3 (2405546, 2018-03-11)">
  <metadata
     id="metadata32">
    <rdf:RDF>
      <cc:Work
         rdf:about="">
        <dc:format>image/svg+xml</dc:format>
        <dc:type
           rdf:resource="http://purl.org/dc/dcmitype/StillImage" />
        <dc:title></dc:title>
      </cc:Work>
    </rdf:RDF>
  </metadata>
  <defs
     id="defs30" />
  <sodipodi:namedview
     pagecolor="#ffffff"
     bordercolor="#666666"
     borderopacity="1"
     objecttolerance="10"
     gridtolerance="10"
     guidetolerance="10"
     inkscape:pageopacity="0"
     inkscape:pageshadow="2"
     inkscape:window-width="1680"
     inkscape:window-height="991"
     id="namedview28"
     showgrid="false"
     inkscape:zoom="3.9333333"
     inkscape:cx="23.915651"
     inkscape:cy="28.123986"
     inkscape:window-x="0"
     inkscape:window-y="30"
     inkscape:window-maximized="1"
     inkscape:current-layer="svg26"
     fit-margin-top="0"
     fit-margin-left="0"
     fit-margin-right="0"
     fit-margin-bottom="0" />
  <path
     d="m 43.394156,16.735422 c -0.2298,-4e-4 -0.4554,-0.0613 -0.6541,-0.1766 l -13.4886,-7.79527 c -0.1521,-0.08417 -0.2859,-0.19779 -0.3935,-0.33424 -0.1077,-0.13645 -0.1871,-0.29298 -0.2336,-0.46046 -0.0465,-0.16748 -0.0592,-0.34255 -0.0373,-0.51498 0.022,-0.17243 0.078,-0.33876 0.1649,-0.48928 0.087,-0.15052 0.203,-0.28222 0.3414,-0.38738 0.1384,-0.10517 0.2964,-0.18172 0.4647,-0.22515 0.1683,-0.04344 0.3435,-0.05291 0.5155,-0.02785 0.172,0.02506 0.3373,0.08414 0.4862,0.1738 l 13.4886,7.79531 c 0.2498,0.1438 0.4451,0.3661 0.5556,0.6323 0.1105,0.2663 0.13,0.5616 0.0554,0.84 -0.0746,0.2785 -0.239,0.5245 -0.4678,0.6999 -0.2288,0.1753 -0.5091,0.2702 -0.7974,0.2699 z"
     id="path2"
     inkscape:connector-curvature="0"
     style="fill:#a4a5a8" />
  <path
     d="m 46.969956,38.295822 c -0.347,0 -0.6798,-0.1378 -0.9251,-0.3832 -0.2454,-0.2454 -0.3832,-0.5781 -0.3832,-0.9251 v -15.6167 c 0,-0.347 0.1378,-0.6798 0.3832,-0.9251 0.2453,-0.2454 0.5781,-0.3832 0.9251,-0.3832 0.3469,0 0.6797,0.1378 0.9251,0.3832 0.2453,0.2453 0.3832,0.5781 0.3832,0.9251 v 15.6167 c 0,0.347 -0.1379,0.6797 -0.3832,0.9251 -0.2454,0.2454 -0.5782,0.3832 -0.9251,0.3832 z"
     id="path4"
     inkscape:connector-curvature="0"
     style="fill:#a4a5a8" />
  <path
     d="m 29.905456,52.463322 c -0.2883,3e-4 -0.5686,-0.0946 -0.7974,-0.27 -0.2288,-0.1754 -0.3932,-0.4214 -0.4678,-0.6998 -0.0746,-0.2785 -0.0551,-0.5738 0.0554,-0.84 0.1105,-0.2663 0.3058,-0.4886 0.5557,-0.6324 l 13.4885,-7.7887 c 0.1489,-0.0897 0.3142,-0.1488 0.4862,-0.1738 0.172,-0.0251 0.3473,-0.0156 0.5156,0.0278 0.1683,0.0434 0.3262,0.12 0.4646,0.2252 0.1384,0.1051 0.2545,0.2368 0.3414,0.3873 0.0869,0.1506 0.143,0.3169 0.1649,0.4893 0.0219,0.1725 0.0092,0.3475 -0.0373,0.515 -0.0465,0.1675 -0.1259,0.324 -0.2335,0.4605 -0.1077,0.1364 -0.2415,0.25 -0.3936,0.3342 l -13.4885,7.7887 c -0.1988,0.1153 -0.4244,0.1762 -0.6542,0.1767 z"
     id="path6"
     inkscape:connector-curvature="0"
     style="fill:#a4a5a8" />
  <path
     d="m 22.797056,52.463322 c -0.2298,-5e-4 -0.4554,-0.0614 -0.6542,-0.1767 l -13.4885498,-7.7887 c -0.15208,-0.0842 -0.28587,-0.1978 -0.39354,-0.3342 -0.10768,-0.1365 -0.18709,-0.293 -0.23359,-0.4605 -0.0465,-0.1675 -0.05916,-0.3425 -0.03724,-0.515 0.02192,-0.1724 0.07798,-0.3387 0.1649,-0.4893 0.08692,-0.1505 0.20296,-0.2822 0.34135,-0.3873 0.13839,-0.1052 0.29635,-0.1818 0.46465,-0.2252 0.1683,-0.0434 0.34357,-0.0529 0.51557,-0.0278 0.17205,0.025 0.33725,0.0841 0.48615,0.1738 l 13.4885998,7.7887 c 0.2498,0.1438 0.4452,0.3661 0.5557,0.6324 0.1105,0.2662 0.1299,0.5615 0.0554,0.84 -0.0746,0.2784 -0.2391,0.5244 -0.4679,0.6998 -0.2288,0.1754 -0.5091,0.2703 -0.7973,0.27 z"
     id="path8"
     inkscape:connector-curvature="0"
     style="fill:#a4a5a8" />
  <path
     d="m 5.7306662,38.295822 c -0.34699,0 -0.67976,-0.1378 -0.92511,-0.3832 -0.24536,-0.2454 -0.38319,-0.5781 -0.38319,-0.9251 v -15.6167 c 0,-0.347 0.13783,-0.6798 0.38319,-0.9251 0.24535,-0.2454 0.57812,-0.3832 0.92511,-0.3832 0.34698,0 0.67975,0.1378 0.9251,0.3832 0.24535,0.2453 0.38319,0.5781 0.38319,0.9251 v 15.6167 c 0,0.347 -0.13784,0.6797 -0.38319,0.9251 -0.24535,0.2454 -0.57812,0.3832 -0.9251,0.3832 z"
     id="path10"
     inkscape:connector-curvature="0"
     style="fill:#a4a5a8" />
  <path
     d="m 9.3087762,16.736722 c -0.28827,3e-4 -0.56857,-0.0946 -0.79736,-0.27 -0.22879,-0.1753 -0.39326,-0.4213 -0.46784,-0.6998 -0.07459,-0.2785 -0.05512,-0.5737 0.05538,-0.84 0.1105,-0.2662 0.30584,-0.4886 0.55567,-0.6324 l 13.4885298,-7.7887 c 0.1489,-0.08965 0.3142,-0.14873 0.4862,-0.17379 0.172,-0.02506 0.3473,-0.0156 0.5156,0.02784 0.1683,0.04344 0.3263,0.11998 0.4646,0.22515 0.1384,0.10517 0.2545,0.23686 0.3414,0.38738 0.0869,0.15052 0.143,0.31685 0.1649,0.48928 0.0219,0.17243 0.0093,0.3475 -0.0372,0.51498 -0.0465,0.16748 -0.126,0.32402 -0.2336,0.46046 -0.1077,0.13645 -0.2415,0.25007 -0.3936,0.33424 l -13.4884998,7.78876 c -0.1988,0.1153 -0.4244,0.1762 -0.65418,0.1766 z"
     id="path12"
     inkscape:connector-curvature="0"
     style="fill:#a4a5a8" />
  <path
     d="m 46.970156,14.957022 c 0.5019,-5e-4 0.9927,0.1481 1.4102,0.4268 0.4174,0.2786 0.7428,0.6749 0.9349,1.1386 0.192,0.4638 0.2422,0.9741 0.1441,1.4663 -0.0982,0.4922 -0.3402,0.9443 -0.6954,1.2989 -0.3552,0.3546 -0.8077,0.5958 -1.3001,0.6931 -0.4924,0.0973 -1.0026,0.0463 -1.466,-0.1466 -0.4634,-0.1929 -0.8591,-0.5189 -1.1371,-0.9369 -0.2779,-0.4179 -0.4256,-0.9089 -0.4243,-1.4108 0.0028,-0.6707 0.2708,-1.3131 0.7455,-1.7869 0.4747,-0.4739 1.1175,-0.7408 1.7882,-0.7425 z m 0,-3.0527 c -1.1059,-0.0013 -2.1873,0.3255 -3.1073,0.9391 -0.9201,0.6136 -1.6374,1.4863 -2.0612,2.5078 -0.4238,1.0215 -0.535,2.1457 -0.3196,3.2304 0.2154,1.0847 0.7478,2.0811 1.5298,2.863 0.782,0.782 1.7784,1.3144 2.8631,1.5298 1.0847,0.2155 2.2089,0.1042 3.2304,-0.3196 1.0214,-0.4238 1.8942,-1.1411 2.5077,-2.0611 0.6136,-0.9201 0.9405,-2.0015 0.9392,-3.1073 -0.0012,-1.4802 -0.5897,-2.8993 -1.6363,-3.9459 -1.0465,-1.0466 -2.4657,-1.6351 -3.9458,-1.6362 z"
     id="path14"
     inkscape:connector-curvature="0"
     style="fill:#2ba7df" />
  <path
     d="m 5.7328862,14.955722 c 0.50183,0 0.99239,0.1489 1.40956,0.4278 0.41717,0.279 0.7422,0.6754 0.93394,1.1392 0.19174,0.4637 0.24158,0.974 0.1432,1.4661 -0.09838,0.4921 -0.34055,0.9439 -0.69586,1.2983 -0.35531,0.3544 -0.80778,0.5954 -1.30013,0.6925 -0.49235,0.0971 -1.00244,0.046 -1.46571,-0.147 -0.46326,-0.1929 -0.85886,-0.519 -1.13672,-0.9369 -0.27786,-0.4179 -0.42549,-0.9088 -0.4242,-1.4106 5.8e-4,-0.6724 0.26794,-1.3171 0.74339,-1.7926 0.47546,-0.4754 1.12014,-0.7428 1.79253,-0.7433 z m 0,-3.0592 c -1.10542,-5e-4 -2.18613,0.3269 -3.10546,0.9408 -0.91933,0.6138 -1.63597999,1.4865 -2.05929999,2.5076 -0.423323,1.0211 -0.534308,2.1449 -0.318916,3.2291 0.215392,1.0843 0.747486,2.0803 1.52897599,2.8621 0.78149,0.7818 1.77729,1.3142 2.86143,1.53 1.08415,0.2159 2.20794,0.1053 3.22925,-0.3176 1.02132,-0.4229 1.89429,-1.1392 2.5084898,-2.0583 0.6141,-0.9191 0.942,-1.9997 0.942,-3.1051 2e-4,-0.7338 -0.144,-1.4605 -0.4247,-2.1385 -0.2806,-0.6781 -0.692,-1.2942 -1.2107998,-1.8131 -0.51877,-0.519 -1.13471,-0.9307 -1.81263,-1.2116 -0.67792,-0.2809 -1.40454,-0.4254 -2.13834,-0.4254 z"
     id="path16"
     inkscape:connector-curvature="0"
     style="fill:#2ba7df" />
  <path
     d="m 5.5973362,38.947222 c 0.50137,0.0013 0.99111,0.1512 1.40732,0.4307 0.41622,0.2795 0.74023,0.6762 0.9311,1.1398 0.19087,0.4636 0.24003,0.9734 0.14127,1.465 -0.09876,0.4915 -0.34102,0.9427 -0.69615,1.2967 -0.35513,0.3539 -0.8072,0.5946 -1.29908,0.6916 -0.49189,0.0971 -1.00151,0.0462 -1.46447,-0.1462 -0.46296,-0.1925 -0.85848,-0.5179 -1.13658,-0.9351 -0.2781,-0.4171 -0.4263,-0.9074 -0.42587,-1.4088 0.00116,-0.6716 0.26847,-1.3154 0.74339,-1.7903 0.47492,-0.4749 1.11871,-0.7422 1.79035,-0.7434 z m -0.00872,-3.0527 c -1.10542,0 -2.186,0.3278 -3.10509,0.942 -0.91909,0.6142 -1.63539999,1.4871 -2.05832299,2.5085 -0.422924,1.0213 -0.533473,2.1451 -0.317658,3.2292 0.215815,1.0842 0.748301,2.0799 1.53010099,2.8614 0.7818,0.7815 1.77779,1.3136 2.86202,1.529 1.08423,0.2154 2.20798,0.1044 3.22913,-0.3189 1.02115,-0.4233 1.89386,-1.14 2.5076598,-2.0593 0.6138,-0.9193 0.9412,-2 0.9408,-3.1055 0,-0.7338 -0.1446,-1.4604 -0.4255,-2.1383 -0.2809,-0.6779 -0.6925,-1.2939 -1.2115298,-1.8126 -0.51898,-0.5188 -1.13508,-0.9303 -1.81311,-1.2109 -0.67802,-0.2806 -1.4047,-0.4249 -2.1385,-0.4246 z"
     id="path18"
     inkscape:connector-curvature="0"
     style="fill:#2ba7df" />
  <path
     d="m 26.351056,50.669922 c 0.5016,0 0.992,0.1487 1.4091,0.4275 0.4171,0.2787 0.7421,0.6749 0.934,1.1384 0.1919,0.4635 0.2419,0.9735 0.1439,1.4655 -0.098,0.492 -0.3397,0.9438 -0.6946,1.2984 -0.3549,0.3546 -0.8069,0.5959 -1.299,0.6935 -0.4921,0.0976 -1.002,0.0471 -1.4654,-0.1452 -0.4633,-0.1922 -0.8592,-0.5176 -1.1376,-0.9349 -0.2784,-0.4173 -0.4268,-0.9079 -0.4263,-1.4095 6e-4,-0.6722 0.268,-1.3167 0.7435,-1.7918 0.4755,-0.4751 1.1202,-0.7419 1.7924,-0.7419 z m 0,-3.0527 c -1.1055,-5e-4 -2.1863,0.327 -3.1057,0.9409 -0.9194,0.6139 -1.636,1.4867 -2.0593,2.508 -0.4232,1.0213 -0.5341,2.1451 -0.3185,3.2294 0.2155,1.0843 0.7479,2.0803 1.5296,2.862 0.7817,0.7817 1.7777,1.314 2.862,1.5296 1.0842,0.2156 2.2081,0.1047 3.2294,-0.3185 1.0213,-0.4233 1.8941,-1.1399 2.508,-2.0593 0.6139,-0.9194 0.9414,-2.0002 0.9409,-3.1057 -6e-4,-1.4814 -0.5893,-2.902 -1.6368,-3.9496 -1.0476,-1.0475 -2.4682,-1.6363 -3.9496,-1.6368 z"
     id="path20"
     inkscape:connector-curvature="0"
     style="fill:#2ba7df" />
  <path
     d="m 46.970156,38.763622 c 0.5017,-4e-4 0.9922,0.1479 1.4095,0.4263 0.4173,0.2784 0.7427,0.6743 0.9349,1.1377 0.1923,0.4633 0.2428,0.9733 0.1452,1.4653 -0.0976,0.4921 -0.3389,0.9442 -0.6935,1.299 -0.3546,0.3549 -0.8064,0.5966 -1.2984,0.6947 -0.492,0.098 -1.002,0.0479 -1.4655,-0.144 -0.4635,-0.1918 -0.8597,-0.5169 -1.1384,-0.934 -0.2788,-0.417 -0.4275,-0.9074 -0.4275,-1.4091 0.0011,-0.6718 0.2684,-1.3158 0.7432,-1.7911 0.4749,-0.4753 1.1187,-0.7431 1.7905,-0.7448 z m 0,-3.0527 c -1.1056,-0.0013 -2.1867,0.3254 -3.1066,0.9387 -0.92,0.6133 -1.6373,1.4857 -2.0613,2.5067 -0.424,1.0211 -0.5356,2.145 -0.3207,3.2295 0.2149,1.0845 0.7467,2.0809 1.528,2.8632 0.7813,0.7822 1.7771,1.3151 2.8614,1.5313 1.0842,0.2162 2.2082,0.1059 3.2298,-0.3169 1.0216,-0.4228 1.8948,-1.1391 2.5092,-2.0583 0.6143,-0.9192 0.9423,-2 0.9423,-3.1056 0,-1.4822 -0.5888,-2.9036 -1.6369,-3.9517 -1.0481,-1.0481 -2.4695,-1.6369 -3.9517,-1.6369 z"
     id="path22"
     inkscape:connector-curvature="0"
     style="fill:#2ba7df" />
  <path
     d="m 26.351556,3.052692 c 0.501,4.3e-4 0.9907,0.14941 1.4071,0.42808 0.4164,0.27867 0.7408,0.67453 0.9322,1.13755 0.1915,0.46302 0.2413,0.9724 0.1433,1.46375 -0.098,0.49136 -0.3395,0.94262 -0.6939,1.29675 -0.3544,0.35414 -0.8059,0.59523 -1.2974,0.69282 -0.4914,0.09759 -1.0007,0.04729 -1.4636,-0.14455 -0.4628,-0.19184 -0.8584,-0.5166 -1.1367,-0.93322 -0.2784,-0.41662 -0.4269,-0.90641 -0.4269,-1.40744 6e-4,-0.67219 0.268,-1.31665 0.7435,-1.79176 0.4755,-0.4751 1.1202,-0.74198 1.7924,-0.74198 z m 0,-3.052692 c -1.1049,0 -2.185,0.327639 -3.1036,0.941482 -0.9187,0.61385 -1.6348,1.48633 -2.0576,2.50711 -0.4228,1.02079 -0.5334,2.14404 -0.3179,3.2277 0.2156,1.08366 0.7476,2.07907 1.5289,2.86035 0.7813,0.78128 1.7767,1.31328 2.8604,1.52888 1.0836,0.2156 2.2069,0.1049 3.2277,-0.3179 1.0207,-0.4228 1.8932,-1.13885 2.5071,-2.05754 0.6138,-0.91868 0.9414,-1.99876 0.9414,-3.10365 -5e-4,-1.48144 -0.5893,-2.90203 -1.6368,-3.94956 C 29.253556,0.589336 27.833056,5.78e-4 26.351556,0 Z"
     id="path24"
     inkscape:connector-curvature="0"
     style="fill:#2ba7df" />
</svg>
